<mxfile host="app.diagrams.net" agent="Mozilla/5.0 (Windows NT 10.0; Win64; x64) AppleWebKit/537.36 (KHTML, like Gecko) Chrome/130.0.0.0 Safari/537.36" version="24.8.4">
  <diagram name="Page-1" id="Ev3-sXDfc9plQagzAYDV">
    <mxGraphModel dx="1909" dy="1096" grid="0" gridSize="10" guides="1" tooltips="1" connect="1" arrows="1" fold="1" page="1" pageScale="1" pageWidth="827" pageHeight="1169" background="#FFFFFF" math="0" shadow="0">
      <root>
        <mxCell id="0" />
        <mxCell id="1" parent="0" />
        <mxCell id="_uebAOKSwzyzQMGw8vvL-76" value="" style="group" vertex="1" connectable="0" parent="1">
          <mxGeometry x="83" y="86" width="661" height="779" as="geometry" />
        </mxCell>
        <mxCell id="_uebAOKSwzyzQMGw8vvL-1" value="" style="rounded=0;whiteSpace=wrap;html=1;fillColor=#003E7D;" vertex="1" parent="_uebAOKSwzyzQMGw8vvL-76">
          <mxGeometry x="90" width="470" height="779" as="geometry" />
        </mxCell>
        <mxCell id="_uebAOKSwzyzQMGw8vvL-2" value="&lt;font color=&quot;#ffffff&quot;&gt;Staff&lt;/font&gt;" style="shape=umlActor;verticalLabelPosition=bottom;verticalAlign=top;html=1;outlineConnect=0;strokeColor=#FFFFFF;fillColor=#003E7D;" vertex="1" parent="_uebAOKSwzyzQMGw8vvL-76">
          <mxGeometry y="252" width="30" height="60" as="geometry" />
        </mxCell>
        <mxCell id="_uebAOKSwzyzQMGw8vvL-3" value="&lt;font color=&quot;#ffffff&quot;&gt;Manager&lt;/font&gt;" style="shape=umlActor;verticalLabelPosition=bottom;verticalAlign=top;html=1;outlineConnect=0;strokeColor=#FFFFFF;fillColor=#003E7D;" vertex="1" parent="_uebAOKSwzyzQMGw8vvL-76">
          <mxGeometry y="567" width="30" height="60" as="geometry" />
        </mxCell>
        <mxCell id="_uebAOKSwzyzQMGw8vvL-5" value="&lt;font color=&quot;#ffffff&quot;&gt;Customer&lt;/font&gt;" style="shape=umlActor;verticalLabelPosition=bottom;verticalAlign=top;html=1;outlineConnect=0;strokeColor=#FFFFFF;fillColor=#003E7D;" vertex="1" parent="_uebAOKSwzyzQMGw8vvL-76">
          <mxGeometry x="631" y="258" width="30" height="60" as="geometry" />
        </mxCell>
        <mxCell id="_uebAOKSwzyzQMGw8vvL-9" value="&lt;font color=&quot;#ffffff&quot;&gt;Employ Staff&lt;/font&gt;" style="ellipse;whiteSpace=wrap;html=1;strokeColor=#FFFFFF;fillColor=#003E7D;" vertex="1" parent="_uebAOKSwzyzQMGw8vvL-76">
          <mxGeometry x="144" y="616" width="58" height="43" as="geometry" />
        </mxCell>
        <mxCell id="_uebAOKSwzyzQMGw8vvL-10" value="&lt;font color=&quot;#ffffff&quot;&gt;View Booking Information&lt;/font&gt;" style="ellipse;whiteSpace=wrap;html=1;strokeColor=#FFFFFF;fillColor=#003E7D;" vertex="1" parent="_uebAOKSwzyzQMGw8vvL-76">
          <mxGeometry x="132.5" y="512.5" width="81" height="66" as="geometry" />
        </mxCell>
        <mxCell id="_uebAOKSwzyzQMGw8vvL-11" value="&lt;font color=&quot;#ffffff&quot;&gt;Access System&lt;/font&gt;" style="ellipse;whiteSpace=wrap;html=1;strokeColor=#FFFFFF;fillColor=#003E7D;" vertex="1" parent="_uebAOKSwzyzQMGw8vvL-76">
          <mxGeometry x="144" y="677" width="58" height="43" as="geometry" />
        </mxCell>
        <mxCell id="_uebAOKSwzyzQMGw8vvL-12" value="&lt;font color=&quot;#ffffff&quot;&gt;Return Cars&lt;/font&gt;" style="ellipse;whiteSpace=wrap;html=1;strokeColor=#FFFFFF;fillColor=#003E7D;" vertex="1" parent="_uebAOKSwzyzQMGw8vvL-76">
          <mxGeometry x="297" y="59" width="118" height="67" as="geometry" />
        </mxCell>
        <mxCell id="_uebAOKSwzyzQMGw8vvL-13" value="&lt;font color=&quot;#ffffff&quot;&gt;View Cars In4&lt;/font&gt;" style="ellipse;whiteSpace=wrap;html=1;strokeColor=#FFFFFF;fillColor=#003E7D;" vertex="1" parent="_uebAOKSwzyzQMGw8vvL-76">
          <mxGeometry x="288" y="207" width="62" height="48" as="geometry" />
        </mxCell>
        <mxCell id="_uebAOKSwzyzQMGw8vvL-16" value="&lt;font color=&quot;#ffffff&quot;&gt;Make Payment&lt;/font&gt;" style="ellipse;whiteSpace=wrap;html=1;strokeColor=#FFFFFF;fillColor=#003E7D;" vertex="1" parent="_uebAOKSwzyzQMGw8vvL-76">
          <mxGeometry x="389" y="176" width="74" height="43" as="geometry" />
        </mxCell>
        <mxCell id="_uebAOKSwzyzQMGw8vvL-17" value="&lt;font color=&quot;#ffffff&quot;&gt;Pick Up Car&lt;/font&gt;" style="ellipse;whiteSpace=wrap;html=1;strokeColor=#FFFFFF;fillColor=#003E7D;" vertex="1" parent="_uebAOKSwzyzQMGw8vvL-76">
          <mxGeometry x="315" y="423" width="58" height="43" as="geometry" />
        </mxCell>
        <mxCell id="_uebAOKSwzyzQMGw8vvL-18" value="&lt;font color=&quot;#ffffff&quot;&gt;Pay By Cash&lt;/font&gt;" style="ellipse;whiteSpace=wrap;html=1;strokeColor=#FFFFFF;fillColor=#003E7D;" vertex="1" parent="_uebAOKSwzyzQMGw8vvL-76">
          <mxGeometry x="350" y="314" width="58" height="43" as="geometry" />
        </mxCell>
        <mxCell id="_uebAOKSwzyzQMGw8vvL-19" value="&lt;font color=&quot;#ffffff&quot;&gt;Pay By Credit Card&lt;/font&gt;" style="ellipse;whiteSpace=wrap;html=1;strokeColor=#FFFFFF;fillColor=#003E7D;" vertex="1" parent="_uebAOKSwzyzQMGw8vvL-76">
          <mxGeometry x="443" y="313" width="71" height="43" as="geometry" />
        </mxCell>
        <mxCell id="_uebAOKSwzyzQMGw8vvL-20" value="&lt;font color=&quot;#ffffff&quot;&gt;Book cars&lt;/font&gt;" style="ellipse;whiteSpace=wrap;html=1;strokeColor=#FFFFFF;fillColor=#003E7D;" vertex="1" parent="_uebAOKSwzyzQMGw8vvL-76">
          <mxGeometry x="315" y="524" width="58" height="43" as="geometry" />
        </mxCell>
        <mxCell id="_uebAOKSwzyzQMGw8vvL-22" value="&lt;font color=&quot;#ffffff&quot;&gt;Provide Customer In4&lt;/font&gt;" style="ellipse;whiteSpace=wrap;html=1;strokeColor=#FFFFFF;fillColor=#003E7D;" vertex="1" parent="_uebAOKSwzyzQMGw8vvL-76">
          <mxGeometry x="441" y="516" width="69" height="59" as="geometry" />
        </mxCell>
        <mxCell id="_uebAOKSwzyzQMGw8vvL-23" value="&lt;font color=&quot;#ffffff&quot;&gt;Respond by Email&lt;/font&gt;" style="ellipse;whiteSpace=wrap;html=1;strokeColor=#FFFFFF;fillColor=#003E7D;" vertex="1" parent="_uebAOKSwzyzQMGw8vvL-76">
          <mxGeometry x="173" y="176" width="62" height="48" as="geometry" />
        </mxCell>
        <mxCell id="_uebAOKSwzyzQMGw8vvL-24" value="&lt;font color=&quot;#ffffff&quot;&gt;Respond booking In4&lt;/font&gt;" style="ellipse;whiteSpace=wrap;html=1;strokeColor=#FFFFFF;fillColor=#003E7D;" vertex="1" parent="_uebAOKSwzyzQMGw8vvL-76">
          <mxGeometry x="168" y="261" width="72" height="60" as="geometry" />
        </mxCell>
        <mxCell id="_uebAOKSwzyzQMGw8vvL-25" value="&lt;font color=&quot;#ffffff&quot;&gt;Pay fine&lt;/font&gt;" style="ellipse;whiteSpace=wrap;html=1;strokeColor=#FFFFFF;fillColor=#003E7D;" vertex="1" parent="_uebAOKSwzyzQMGw8vvL-76">
          <mxGeometry x="494" y="71" width="58" height="43" as="geometry" />
        </mxCell>
        <mxCell id="_uebAOKSwzyzQMGw8vvL-26" value="&lt;font color=&quot;#ffffff&quot;&gt;Validate Credit Information&lt;/font&gt;" style="ellipse;whiteSpace=wrap;html=1;strokeColor=#FFFFFF;fillColor=#003E7D;" vertex="1" parent="_uebAOKSwzyzQMGw8vvL-76">
          <mxGeometry x="364" y="675" width="104" height="74" as="geometry" />
        </mxCell>
        <mxCell id="_uebAOKSwzyzQMGw8vvL-27" value="&lt;font color=&quot;#ffffff&quot;&gt;Select Rental Options&lt;/font&gt;" style="ellipse;whiteSpace=wrap;html=1;strokeColor=#FFFFFF;fillColor=#003E7D;" vertex="1" parent="_uebAOKSwzyzQMGw8vvL-76">
          <mxGeometry x="238" y="625" width="85" height="59.5" as="geometry" />
        </mxCell>
        <mxCell id="_uebAOKSwzyzQMGw8vvL-30" value="" style="endArrow=none;html=1;rounded=0;exitX=1;exitY=0.3333333333333333;exitDx=0;exitDy=0;exitPerimeter=0;entryX=0;entryY=0.5;entryDx=0;entryDy=0;strokeColor=#FFFFFF;" edge="1" parent="_uebAOKSwzyzQMGw8vvL-76" source="_uebAOKSwzyzQMGw8vvL-2" target="_uebAOKSwzyzQMGw8vvL-24">
          <mxGeometry width="50" height="50" relative="1" as="geometry">
            <mxPoint x="159" y="508" as="sourcePoint" />
            <mxPoint x="209" y="458" as="targetPoint" />
          </mxGeometry>
        </mxCell>
        <mxCell id="_uebAOKSwzyzQMGw8vvL-31" value="" style="endArrow=none;html=1;rounded=0;entryX=0;entryY=0.5;entryDx=0;entryDy=0;strokeColor=#FFFFFF;exitX=1;exitY=0.3333333333333333;exitDx=0;exitDy=0;exitPerimeter=0;" edge="1" parent="_uebAOKSwzyzQMGw8vvL-76" source="_uebAOKSwzyzQMGw8vvL-2" target="_uebAOKSwzyzQMGw8vvL-13">
          <mxGeometry width="50" height="50" relative="1" as="geometry">
            <mxPoint x="62" y="282" as="sourcePoint" />
            <mxPoint x="147" y="331" as="targetPoint" />
          </mxGeometry>
        </mxCell>
        <mxCell id="_uebAOKSwzyzQMGw8vvL-32" value="" style="endArrow=none;html=1;rounded=0;entryX=1;entryY=0.5;entryDx=0;entryDy=0;exitX=0;exitY=0.3333333333333333;exitDx=0;exitDy=0;exitPerimeter=0;strokeColor=#FFFFFF;" edge="1" parent="_uebAOKSwzyzQMGw8vvL-76" source="_uebAOKSwzyzQMGw8vvL-5" target="_uebAOKSwzyzQMGw8vvL-13">
          <mxGeometry width="50" height="50" relative="1" as="geometry">
            <mxPoint x="602" y="242" as="sourcePoint" />
            <mxPoint x="157" y="341" as="targetPoint" />
          </mxGeometry>
        </mxCell>
        <mxCell id="_uebAOKSwzyzQMGw8vvL-33" value="" style="endArrow=none;html=1;rounded=0;entryX=0;entryY=0.5;entryDx=0;entryDy=0;strokeColor=#FFFFFF;exitX=1;exitY=0.3333333333333333;exitDx=0;exitDy=0;exitPerimeter=0;" edge="1" parent="_uebAOKSwzyzQMGw8vvL-76" source="_uebAOKSwzyzQMGw8vvL-2" target="_uebAOKSwzyzQMGw8vvL-12">
          <mxGeometry width="50" height="50" relative="1" as="geometry">
            <mxPoint x="44" y="301" as="sourcePoint" />
            <mxPoint x="350" y="270" as="targetPoint" />
          </mxGeometry>
        </mxCell>
        <mxCell id="_uebAOKSwzyzQMGw8vvL-34" value="" style="endArrow=none;html=1;rounded=0;entryX=1;entryY=0.5;entryDx=0;entryDy=0;exitX=0;exitY=0.3333333333333333;exitDx=0;exitDy=0;exitPerimeter=0;strokeColor=#FFFFFF;" edge="1" parent="_uebAOKSwzyzQMGw8vvL-76" source="_uebAOKSwzyzQMGw8vvL-5" target="_uebAOKSwzyzQMGw8vvL-12">
          <mxGeometry width="50" height="50" relative="1" as="geometry">
            <mxPoint x="651" y="298" as="sourcePoint" />
            <mxPoint x="360" y="280" as="targetPoint" />
          </mxGeometry>
        </mxCell>
        <mxCell id="_uebAOKSwzyzQMGw8vvL-35" value="" style="endArrow=none;html=1;rounded=0;entryX=1;entryY=0.3333333333333333;entryDx=0;entryDy=0;exitX=0;exitY=0.5;exitDx=0;exitDy=0;strokeColor=#FFFFFF;entryPerimeter=0;" edge="1" parent="_uebAOKSwzyzQMGw8vvL-76" source="_uebAOKSwzyzQMGw8vvL-20" target="_uebAOKSwzyzQMGw8vvL-2">
          <mxGeometry width="50" height="50" relative="1" as="geometry">
            <mxPoint x="661" y="308" as="sourcePoint" />
            <mxPoint x="370" y="290" as="targetPoint" />
          </mxGeometry>
        </mxCell>
        <mxCell id="_uebAOKSwzyzQMGw8vvL-36" value="" style="endArrow=none;html=1;rounded=0;entryX=0;entryY=0.3333333333333333;entryDx=0;entryDy=0;exitX=1;exitY=0.5;exitDx=0;exitDy=0;strokeColor=#FFFFFF;entryPerimeter=0;" edge="1" parent="_uebAOKSwzyzQMGw8vvL-76" source="_uebAOKSwzyzQMGw8vvL-20" target="_uebAOKSwzyzQMGw8vvL-5">
          <mxGeometry width="50" height="50" relative="1" as="geometry">
            <mxPoint x="325" y="555" as="sourcePoint" />
            <mxPoint x="40" y="282" as="targetPoint" />
          </mxGeometry>
        </mxCell>
        <mxCell id="_uebAOKSwzyzQMGw8vvL-37" value="" style="endArrow=none;html=1;rounded=0;entryX=1;entryY=0.3333333333333333;entryDx=0;entryDy=0;exitX=0;exitY=0.5;exitDx=0;exitDy=0;strokeColor=#FFFFFF;entryPerimeter=0;" edge="1" parent="_uebAOKSwzyzQMGw8vvL-76" source="_uebAOKSwzyzQMGw8vvL-10" target="_uebAOKSwzyzQMGw8vvL-3">
          <mxGeometry width="50" height="50" relative="1" as="geometry">
            <mxPoint x="325" y="555" as="sourcePoint" />
            <mxPoint x="40" y="282" as="targetPoint" />
          </mxGeometry>
        </mxCell>
        <mxCell id="_uebAOKSwzyzQMGw8vvL-38" value="" style="endArrow=none;html=1;rounded=0;entryX=1;entryY=0.3333333333333333;entryDx=0;entryDy=0;exitX=0;exitY=0.5;exitDx=0;exitDy=0;strokeColor=#FFFFFF;entryPerimeter=0;" edge="1" parent="_uebAOKSwzyzQMGw8vvL-76" source="_uebAOKSwzyzQMGw8vvL-9" target="_uebAOKSwzyzQMGw8vvL-3">
          <mxGeometry width="50" height="50" relative="1" as="geometry">
            <mxPoint x="143" y="555" as="sourcePoint" />
            <mxPoint x="40" y="597" as="targetPoint" />
          </mxGeometry>
        </mxCell>
        <mxCell id="_uebAOKSwzyzQMGw8vvL-39" value="" style="endArrow=none;html=1;rounded=0;entryX=1;entryY=0.3333333333333333;entryDx=0;entryDy=0;exitX=0;exitY=0.5;exitDx=0;exitDy=0;strokeColor=#FFFFFF;entryPerimeter=0;" edge="1" parent="_uebAOKSwzyzQMGw8vvL-76" source="_uebAOKSwzyzQMGw8vvL-11" target="_uebAOKSwzyzQMGw8vvL-3">
          <mxGeometry width="50" height="50" relative="1" as="geometry">
            <mxPoint x="154" y="648" as="sourcePoint" />
            <mxPoint x="40" y="597" as="targetPoint" />
          </mxGeometry>
        </mxCell>
        <mxCell id="_uebAOKSwzyzQMGw8vvL-41" value="" style="endArrow=none;html=1;rounded=0;entryX=1;entryY=0.5;entryDx=0;entryDy=0;exitX=0;exitY=0.3333333333333333;exitDx=0;exitDy=0;exitPerimeter=0;strokeColor=#FFFFFF;" edge="1" parent="_uebAOKSwzyzQMGw8vvL-76" source="_uebAOKSwzyzQMGw8vvL-5" target="_uebAOKSwzyzQMGw8vvL-24">
          <mxGeometry width="50" height="50" relative="1" as="geometry">
            <mxPoint x="641" y="288" as="sourcePoint" />
            <mxPoint x="350" y="270" as="targetPoint" />
          </mxGeometry>
        </mxCell>
        <mxCell id="_uebAOKSwzyzQMGw8vvL-42" value="&lt;font color=&quot;#ffffff&quot;&gt;CEO&lt;/font&gt;" style="shape=umlActor;verticalLabelPosition=bottom;verticalAlign=top;html=1;outlineConnect=0;strokeColor=#FFFFFF;fillColor=#003E7D;" vertex="1" parent="_uebAOKSwzyzQMGw8vvL-76">
          <mxGeometry y="69" width="30" height="60" as="geometry" />
        </mxCell>
        <mxCell id="_uebAOKSwzyzQMGw8vvL-43" value="&lt;font color=&quot;#ffffff&quot;&gt;Buy Cars&lt;/font&gt;" style="ellipse;whiteSpace=wrap;html=1;strokeColor=#FFFFFF;fillColor=#003E7D;" vertex="1" parent="_uebAOKSwzyzQMGw8vvL-76">
          <mxGeometry x="144" y="64" width="62" height="48" as="geometry" />
        </mxCell>
        <mxCell id="_uebAOKSwzyzQMGw8vvL-44" value="" style="endArrow=none;html=1;rounded=0;entryX=0;entryY=0.3333333333333333;entryDx=0;entryDy=0;exitX=1;exitY=0.5;exitDx=0;exitDy=0;strokeColor=#FFFFFF;entryPerimeter=0;" edge="1" parent="_uebAOKSwzyzQMGw8vvL-76" source="_uebAOKSwzyzQMGw8vvL-17" target="_uebAOKSwzyzQMGw8vvL-5">
          <mxGeometry width="50" height="50" relative="1" as="geometry">
            <mxPoint x="383" y="556" as="sourcePoint" />
            <mxPoint x="641" y="288" as="targetPoint" />
          </mxGeometry>
        </mxCell>
        <mxCell id="_uebAOKSwzyzQMGw8vvL-45" value="" style="endArrow=none;html=1;rounded=0;entryX=1;entryY=0.3333333333333333;entryDx=0;entryDy=0;exitX=0;exitY=0.5;exitDx=0;exitDy=0;strokeColor=#FFFFFF;entryPerimeter=0;" edge="1" parent="_uebAOKSwzyzQMGw8vvL-76" source="_uebAOKSwzyzQMGw8vvL-17" target="_uebAOKSwzyzQMGw8vvL-2">
          <mxGeometry width="50" height="50" relative="1" as="geometry">
            <mxPoint x="383" y="455" as="sourcePoint" />
            <mxPoint x="641" y="288" as="targetPoint" />
          </mxGeometry>
        </mxCell>
        <mxCell id="_uebAOKSwzyzQMGw8vvL-46" value="" style="endArrow=classic;html=1;rounded=0;strokeColor=#FFFFFF;entryX=0;entryY=1;entryDx=0;entryDy=0;exitX=1;exitY=0;exitDx=0;exitDy=0;" edge="1" parent="_uebAOKSwzyzQMGw8vvL-76" source="_uebAOKSwzyzQMGw8vvL-18" target="_uebAOKSwzyzQMGw8vvL-16">
          <mxGeometry width="50" height="50" relative="1" as="geometry">
            <mxPoint x="253" y="417" as="sourcePoint" />
            <mxPoint x="303" y="367" as="targetPoint" />
          </mxGeometry>
        </mxCell>
        <mxCell id="_uebAOKSwzyzQMGw8vvL-47" value="" style="endArrow=classic;html=1;rounded=0;strokeColor=#FFFFFF;entryX=1;entryY=1;entryDx=0;entryDy=0;exitX=0;exitY=0;exitDx=0;exitDy=0;" edge="1" parent="_uebAOKSwzyzQMGw8vvL-76" source="_uebAOKSwzyzQMGw8vvL-19" target="_uebAOKSwzyzQMGw8vvL-16">
          <mxGeometry width="50" height="50" relative="1" as="geometry">
            <mxPoint x="408" y="323" as="sourcePoint" />
            <mxPoint x="408" y="222" as="targetPoint" />
          </mxGeometry>
        </mxCell>
        <mxCell id="_uebAOKSwzyzQMGw8vvL-48" value="" style="endArrow=none;html=1;rounded=0;entryX=1;entryY=0.3333333333333333;entryDx=0;entryDy=0;exitX=0;exitY=0.5;exitDx=0;exitDy=0;strokeColor=#FFFFFF;entryPerimeter=0;" edge="1" parent="_uebAOKSwzyzQMGw8vvL-76" source="_uebAOKSwzyzQMGw8vvL-9" target="_uebAOKSwzyzQMGw8vvL-2">
          <mxGeometry width="50" height="50" relative="1" as="geometry">
            <mxPoint x="325" y="556" as="sourcePoint" />
            <mxPoint x="40" y="282" as="targetPoint" />
          </mxGeometry>
        </mxCell>
        <mxCell id="_uebAOKSwzyzQMGw8vvL-49" value="" style="endArrow=none;html=1;rounded=0;entryX=0;entryY=0.5;entryDx=0;entryDy=0;strokeColor=#FFFFFF;exitX=1;exitY=0.3333333333333333;exitDx=0;exitDy=0;exitPerimeter=0;" edge="1" parent="_uebAOKSwzyzQMGw8vvL-76" source="_uebAOKSwzyzQMGw8vvL-42" target="_uebAOKSwzyzQMGw8vvL-43">
          <mxGeometry width="50" height="50" relative="1" as="geometry">
            <mxPoint x="40" y="282" as="sourcePoint" />
            <mxPoint x="364" y="106" as="targetPoint" />
          </mxGeometry>
        </mxCell>
        <mxCell id="_uebAOKSwzyzQMGw8vvL-54" value="" style="endArrow=block;dashed=1;endFill=0;endSize=12;html=1;rounded=0;entryX=1;entryY=0.5;entryDx=0;entryDy=0;exitX=0;exitY=0.5;exitDx=0;exitDy=0;strokeColor=#FFFFFF;" edge="1" parent="_uebAOKSwzyzQMGw8vvL-76" source="_uebAOKSwzyzQMGw8vvL-25" target="_uebAOKSwzyzQMGw8vvL-12">
          <mxGeometry width="160" relative="1" as="geometry">
            <mxPoint x="196" y="243" as="sourcePoint" />
            <mxPoint x="356" y="243" as="targetPoint" />
          </mxGeometry>
        </mxCell>
        <mxCell id="_uebAOKSwzyzQMGw8vvL-55" value="" style="endArrow=block;dashed=1;endFill=0;endSize=12;html=1;rounded=0;entryX=1;entryY=1;entryDx=0;entryDy=0;exitX=0;exitY=0;exitDx=0;exitDy=0;strokeColor=#FFFFFF;" edge="1" parent="_uebAOKSwzyzQMGw8vvL-76" source="_uebAOKSwzyzQMGw8vvL-16" target="_uebAOKSwzyzQMGw8vvL-12">
          <mxGeometry width="160" relative="1" as="geometry">
            <mxPoint x="505" y="105" as="sourcePoint" />
            <mxPoint x="428" y="106" as="targetPoint" />
          </mxGeometry>
        </mxCell>
        <mxCell id="_uebAOKSwzyzQMGw8vvL-56" value="" style="endArrow=block;dashed=1;endFill=0;endSize=12;html=1;rounded=0;entryX=1;entryY=0.5;entryDx=0;entryDy=0;exitX=0;exitY=0.5;exitDx=0;exitDy=0;strokeColor=#FFFFFF;" edge="1" parent="_uebAOKSwzyzQMGw8vvL-76" source="_uebAOKSwzyzQMGw8vvL-22" target="_uebAOKSwzyzQMGw8vvL-20">
          <mxGeometry width="160" relative="1" as="geometry">
            <mxPoint x="432" y="575" as="sourcePoint" />
            <mxPoint x="353" y="575" as="targetPoint" />
          </mxGeometry>
        </mxCell>
        <mxCell id="_uebAOKSwzyzQMGw8vvL-57" value="" style="endArrow=block;dashed=1;endFill=0;endSize=12;html=1;rounded=0;exitX=0;exitY=0.5;exitDx=0;exitDy=0;strokeColor=#FFFFFF;entryX=1;entryY=1;entryDx=0;entryDy=0;" edge="1" parent="_uebAOKSwzyzQMGw8vvL-76" source="_uebAOKSwzyzQMGw8vvL-26" target="_uebAOKSwzyzQMGw8vvL-20">
          <mxGeometry width="160" relative="1" as="geometry">
            <mxPoint x="432" y="556" as="sourcePoint" />
            <mxPoint x="383" y="556" as="targetPoint" />
          </mxGeometry>
        </mxCell>
        <mxCell id="_uebAOKSwzyzQMGw8vvL-58" value="" style="endArrow=block;dashed=1;endFill=0;endSize=12;html=1;rounded=0;exitX=1;exitY=0.5;exitDx=0;exitDy=0;strokeColor=#FFFFFF;entryX=0;entryY=1;entryDx=0;entryDy=0;" edge="1" parent="_uebAOKSwzyzQMGw8vvL-76" source="_uebAOKSwzyzQMGw8vvL-27" target="_uebAOKSwzyzQMGw8vvL-20">
          <mxGeometry width="160" relative="1" as="geometry">
            <mxPoint x="378" y="722" as="sourcePoint" />
            <mxPoint x="375" y="571" as="targetPoint" />
          </mxGeometry>
        </mxCell>
        <mxCell id="_uebAOKSwzyzQMGw8vvL-59" value="" style="endArrow=block;dashed=1;endFill=0;endSize=12;html=1;rounded=0;exitX=0;exitY=0.5;exitDx=0;exitDy=0;strokeColor=#FFFFFF;entryX=1;entryY=0.5;entryDx=0;entryDy=0;" edge="1" parent="_uebAOKSwzyzQMGw8vvL-76" source="_uebAOKSwzyzQMGw8vvL-20" target="_uebAOKSwzyzQMGw8vvL-10">
          <mxGeometry width="160" relative="1" as="geometry">
            <mxPoint x="335" y="722" as="sourcePoint" />
            <mxPoint x="333" y="571" as="targetPoint" />
          </mxGeometry>
        </mxCell>
        <mxCell id="_uebAOKSwzyzQMGw8vvL-60" value="" style="endArrow=classic;html=1;rounded=0;strokeColor=#FFFFFF;entryX=0.5;entryY=0;entryDx=0;entryDy=0;exitX=0.5;exitY=1;exitDx=0;exitDy=0;" edge="1" parent="_uebAOKSwzyzQMGw8vvL-76" source="_uebAOKSwzyzQMGw8vvL-23" target="_uebAOKSwzyzQMGw8vvL-24">
          <mxGeometry width="50" height="50" relative="1" as="geometry">
            <mxPoint x="410" y="330" as="sourcePoint" />
            <mxPoint x="410" y="223" as="targetPoint" />
          </mxGeometry>
        </mxCell>
        <mxCell id="_uebAOKSwzyzQMGw8vvL-62" value="&lt;font style=&quot;font-size: 8px;&quot; color=&quot;#ffffff&quot;&gt;&amp;lt;&amp;lt;Extend&amp;gt;&amp;gt;&lt;/font&gt;" style="text;html=1;align=center;verticalAlign=middle;whiteSpace=wrap;rounded=0;" vertex="1" parent="_uebAOKSwzyzQMGw8vvL-76">
          <mxGeometry x="434" y="71" width="60" height="30" as="geometry" />
        </mxCell>
        <mxCell id="_uebAOKSwzyzQMGw8vvL-63" value="&lt;font style=&quot;font-size: 8px;&quot; color=&quot;#ffffff&quot;&gt;&amp;lt;&amp;lt;Include&amp;gt;&amp;gt;&lt;/font&gt;" style="text;html=1;align=center;verticalAlign=middle;whiteSpace=wrap;rounded=0;" vertex="1" parent="_uebAOKSwzyzQMGw8vvL-76">
          <mxGeometry x="344" y="141" width="60" height="30" as="geometry" />
        </mxCell>
        <mxCell id="_uebAOKSwzyzQMGw8vvL-64" value="&lt;font style=&quot;font-size: 8px;&quot; color=&quot;#ffffff&quot;&gt;&amp;lt;&amp;lt;Include&amp;gt;&amp;gt;&lt;/font&gt;" style="text;html=1;align=center;verticalAlign=middle;whiteSpace=wrap;rounded=0;" vertex="1" parent="_uebAOKSwzyzQMGw8vvL-76">
          <mxGeometry x="386" y="524" width="60" height="30" as="geometry" />
        </mxCell>
        <mxCell id="_uebAOKSwzyzQMGw8vvL-65" value="&lt;font style=&quot;font-size: 8px;&quot; color=&quot;#ffffff&quot;&gt;&amp;lt;&amp;lt;Include&amp;gt;&amp;gt;&lt;/font&gt;" style="text;html=1;align=center;verticalAlign=middle;whiteSpace=wrap;rounded=0;" vertex="1" parent="_uebAOKSwzyzQMGw8vvL-76">
          <mxGeometry x="240" y="524" width="60" height="30" as="geometry" />
        </mxCell>
        <mxCell id="_uebAOKSwzyzQMGw8vvL-66" value="&lt;font style=&quot;font-size: 8px;&quot; color=&quot;#ffffff&quot;&gt;&amp;lt;&amp;lt;Include&amp;gt;&amp;gt;&lt;/font&gt;" style="text;html=1;align=center;verticalAlign=middle;whiteSpace=wrap;rounded=0;" vertex="1" parent="_uebAOKSwzyzQMGw8vvL-76">
          <mxGeometry x="364" y="614" width="60" height="30" as="geometry" />
        </mxCell>
        <mxCell id="_uebAOKSwzyzQMGw8vvL-67" value="&lt;font style=&quot;font-size: 8px;&quot; color=&quot;#ffffff&quot;&gt;&amp;lt;&amp;lt;Include&amp;gt;&amp;gt;&lt;/font&gt;" style="text;html=1;align=center;verticalAlign=middle;whiteSpace=wrap;rounded=0;" vertex="1" parent="_uebAOKSwzyzQMGw8vvL-76">
          <mxGeometry x="263" y="586" width="60" height="30" as="geometry" />
        </mxCell>
        <mxCell id="_uebAOKSwzyzQMGw8vvL-68" value="&lt;font color=&quot;#ffffff&quot;&gt;Insurance Comp.&lt;/font&gt;" style="shape=umlActor;verticalLabelPosition=bottom;verticalAlign=top;html=1;outlineConnect=0;strokeColor=#FFFFFF;fillColor=#003E7D;" vertex="1" parent="_uebAOKSwzyzQMGw8vvL-76">
          <mxGeometry x="631" y="633" width="30" height="60" as="geometry" />
        </mxCell>
        <mxCell id="_uebAOKSwzyzQMGw8vvL-69" value="" style="endArrow=none;html=1;rounded=0;exitX=1;exitY=0.5;exitDx=0;exitDy=0;strokeColor=#FFFFFF;entryX=0;entryY=0.3333333333333333;entryDx=0;entryDy=0;entryPerimeter=0;" edge="1" parent="_uebAOKSwzyzQMGw8vvL-76" source="_uebAOKSwzyzQMGw8vvL-27" target="_uebAOKSwzyzQMGw8vvL-68">
          <mxGeometry width="50" height="50" relative="1" as="geometry">
            <mxPoint x="463" y="696" as="sourcePoint" />
            <mxPoint x="640" y="290" as="targetPoint" />
          </mxGeometry>
        </mxCell>
        <mxCell id="_uebAOKSwzyzQMGw8vvL-70" value="&lt;font color=&quot;#ffffff&quot;&gt;Bank&lt;/font&gt;" style="shape=umlActor;verticalLabelPosition=bottom;verticalAlign=top;html=1;outlineConnect=0;strokeColor=#FFFFFF;fillColor=#003E7D;" vertex="1" parent="_uebAOKSwzyzQMGw8vvL-76">
          <mxGeometry x="631" y="437" width="30" height="60" as="geometry" />
        </mxCell>
        <mxCell id="_uebAOKSwzyzQMGw8vvL-71" value="" style="endArrow=none;html=1;rounded=0;entryX=0;entryY=0.3333333333333333;entryDx=0;entryDy=0;exitX=1;exitY=1;exitDx=0;exitDy=0;strokeColor=#FFFFFF;entryPerimeter=0;" edge="1" parent="_uebAOKSwzyzQMGw8vvL-76" source="_uebAOKSwzyzQMGw8vvL-19" target="_uebAOKSwzyzQMGw8vvL-70">
          <mxGeometry width="50" height="50" relative="1" as="geometry">
            <mxPoint x="383" y="556" as="sourcePoint" />
            <mxPoint x="641" y="288" as="targetPoint" />
          </mxGeometry>
        </mxCell>
        <mxCell id="_uebAOKSwzyzQMGw8vvL-72" value="" style="endArrow=none;html=1;rounded=0;entryX=0;entryY=0.3333333333333333;entryDx=0;entryDy=0;exitX=1;exitY=0;exitDx=0;exitDy=0;strokeColor=#FFFFFF;entryPerimeter=0;" edge="1" parent="_uebAOKSwzyzQMGw8vvL-76" source="_uebAOKSwzyzQMGw8vvL-26" target="_uebAOKSwzyzQMGw8vvL-70">
          <mxGeometry width="50" height="50" relative="1" as="geometry">
            <mxPoint x="514" y="360" as="sourcePoint" />
            <mxPoint x="641" y="467" as="targetPoint" />
          </mxGeometry>
        </mxCell>
        <mxCell id="_uebAOKSwzyzQMGw8vvL-73" value="&lt;font color=&quot;#ffffff&quot; style=&quot;font-size: 13px;&quot;&gt;CAR RENTAL&lt;/font&gt;" style="text;html=1;align=center;verticalAlign=middle;whiteSpace=wrap;rounded=0;" vertex="1" parent="_uebAOKSwzyzQMGw8vvL-76">
          <mxGeometry x="270" width="98" height="30" as="geometry" />
        </mxCell>
      </root>
    </mxGraphModel>
  </diagram>
</mxfile>
